<?xml version="1.0" encoding="UTF-8"?>
<svg version="1.1" xmlns="http://www.w3.org/2000/svg" width="736" height="736">
<path d="M0 0 C242.88 0 485.76 0 736 0 C736 242.88 736 485.76 736 736 C493.12 736 250.24 736 0 736 C0 493.12 0 250.24 0 0 Z " fill="#140F0B" transform="translate(0,0)"/>
<path d="M0 0 C3 3 3 3 3.1875 6.6875 C3.0946875 8.3271875 3.0946875 8.3271875 3 10 C4.093125 10.103125 5.18625 10.20625 6.3125 10.3125 C22.08827607 12.3193125 37.13895487 19.2480838 48 31 C59.6850555 46.80067681 63.79750061 65.99741327 61.375 85.4375 C58.07779879 105.79771749 50.29662225 120.80090391 33.46875 132.96875 C32.9840625 133.3090625 32.499375 133.649375 32 134 C32 133.34 32 132.68 32 132 C31.5359375 132.31453125 31.071875 132.6290625 30.59375 132.953125 C23.21824147 137.521537 15.37724529 139.18195953 7 141 C6.29431885 141.17942139 5.5886377 141.35884277 4.86157227 141.54370117 C0.75014715 142.19929827 -3.30060022 142.12228549 -7.45703125 142.09765625 C-8.35999435 142.0962413 -9.26295746 142.09482635 -10.19328308 142.09336853 C-13.06638963 142.08778823 -15.93941716 142.07523934 -18.8125 142.0625 C-20.76497283 142.05748245 -22.71744689 142.05291999 -24.66992188 142.04882812 C-29.44664485 142.03782525 -34.22330904 142.02057418 -39 142 C-38.67 141.21625 -38.34 140.4325 -38 139.625 C-36.88133489 137.15667503 -36.88133489 137.15667503 -37 135 C-36.34 135 -35.68 135 -35 135 C-35.33 134.01 -35.66 133.02 -36 132 C-36.02435126 130.59632382 -35.99214942 129.19118992 -35.921875 127.7890625 C-34.9783333 101.56934276 -49.22237268 84.71919442 -66.1875 66.375 C-75.52186011 56.0821353 -81.09276465 46.00627126 -86.13623047 33.16723633 C-86.94176658 31.14611026 -87.78560702 29.14784774 -88.65234375 27.15234375 C-92.14446464 18.98381749 -92.0764426 12.72791299 -91 4 C-90.67 4 -90.34 4 -90 4 C-90 5.65 -90 7.3 -90 9 C-60.3 9 -30.6 9 0 9 C0 6.03 0 3.06 0 0 Z " fill="#140F0B" transform="translate(379,238)"/>
<path d="M0 0 C5.94 0 11.88 0 18 0 C18.14695312 1.99546875 18.14695312 1.99546875 18.296875 4.03125 C19.60193169 20.31641732 22.46350271 34.92002457 29 50 C29.46792969 51.10730469 29.93585938 52.21460938 30.41796875 53.35546875 C35.70515335 64.9089462 43.57083373 74.70356812 52.59765625 83.59375 C64.52474691 95.3442286 76.85335207 112.22311833 77.375 129.4375 C76.94178643 144.37470397 69.68604005 155.53148661 59.62426758 166.07568359 C44.05058226 182.41918932 34.25148689 198.51705214 34.6953125 221.609375 C34.96108925 228.00119604 36.19144502 233.24008217 39 239 C39.55945313 240.16273438 40.11890625 241.32546875 40.6953125 242.5234375 C44.43694947 249.9902028 48.78791499 256.98195822 53.58642578 263.8137207 C57.756588 269.81912319 60 274.47579064 60 282 C53.4 282 46.8 282 40 282 C39.835 280.63875 39.67 279.2775 39.5 277.875 C37.70066133 268.81404453 32.02929346 260.88826904 26.875 253.375 C17.37813738 239.3619663 11.49225148 223.44390627 14.66015625 206.4609375 C18.6996336 190.40794961 29.99475988 177.26736532 41.1875 165.4375 C46.43404027 159.7976784 50.24825393 153.70348746 54 147 C54.35521729 146.37988037 54.71043457 145.75976074 55.07641602 145.12084961 C58.3809938 137.53246282 56.98717103 125.08426125 55.08984375 117.234375 C53.90967791 114.33518946 52.57825569 111.7007584 51 109 C50.60039062 108.21625 50.20078125 107.4325 49.7890625 106.625 C44.02483136 96.0048408 35.38240331 86.6113182 27.25 77.75 C18.35671616 67.96087255 12.07022648 58.1096927 7 46 C6.525625 44.90558594 6.05125 43.81117188 5.5625 42.68359375 C-0.49832723 27.98248007 -1.329418 15.59044747 0 0 Z " fill="#D4CCBC" transform="translate(267,227)"/>
<path d="M0 0 C2.56407016 2.56407016 3.39083138 5.42057616 4.625 8.75 C9.67696391 21.74704007 16.20896203 31.93429595 26 42 C39.20726599 56.37933938 53.59272054 72.7362853 54.3125 93.25 C52.85848192 110.69821698 42.01844091 123.12599136 30.3828125 135.30859375 C27.9403304 137.8987723 27.9403304 137.8987723 26.3046875 140.84765625 C25.87414062 141.55792969 25.44359375 142.26820313 25 143 C24.34 143 23.68 143 23 143 C22.72929687 143.72960937 22.45859375 144.45921875 22.1796875 145.2109375 C21.03888437 147.90806807 19.71019247 150.16918369 18.125 152.625 C9.97417202 166.16975826 9.40731993 178.68102006 13.171875 193.82495117 C16.20628508 204.98778726 22.1330285 214.07342473 28.7734375 223.41967773 C33.37592076 230.04018426 36 235.85688954 36 244 C23.79 244 11.58 244 -1 244 C-4.42286225 236.46970305 -7.15770935 229.80641445 -9.1875 221.9375 C-9.43435547 221.02162109 -9.68121094 220.10574219 -9.93554688 219.16210938 C-10.65578 216.44827097 -11.33823628 213.72864906 -12 211 C-12.20012695 210.1848291 -12.40025391 209.3696582 -12.60644531 208.52978516 C-17.9430428 184.7537636 -13.80836164 158.64047757 -0.875 138.0625 C7.65089127 124.98802502 18.4409397 113.73298455 30.21484375 103.55078125 C35.79256309 98.70536642 39.41960471 94.80481355 40.5625 87.3125 C40.1991954 78.1889189 32.22926796 69.13457484 27.375 61.75 C18.2275344 47.56746706 10.06884267 32.82315528 3.8125 17.125 C3.532854 16.43051758 3.25320801 15.73603516 2.96508789 15.02050781 C1.09777536 10.06265774 0.37562238 5.27401356 0 0 Z " fill="#D5CCBC" transform="translate(268,265)"/>
<path d="M0 0 C24.04621844 2.73252482 47.46880712 13.38708514 63.4375 31.8125 C68.69134749 38.44893894 72.3442233 44.9740866 75 53 C75.5878125 54.68222656 75.5878125 54.68222656 76.1875 56.3984375 C82.71523615 78.02156349 80.68167827 103.97884387 70 124 C63.6622807 133.89181287 63.6622807 133.89181287 59 137 C58.98582031 135.69546875 58.97164063 134.3909375 58.95703125 133.046875 C58.72738323 122.75805236 58.16696777 114.14450978 53 105 C52.39671875 103.92363281 51.7934375 102.84726562 51.171875 101.73828125 C48.03881198 96.42810948 44.88461323 91.82788062 40.625 87.375 C35.67970159 81.48682369 35.90963924 74.98808757 35.40625 67.63671875 C34.44247016 54.43025779 27.55713522 42.03265829 18 33 C14.16295558 30.04171925 10.36853118 27.52948116 5.83984375 25.77734375 C3 24 3 24 1.7578125 20.7421875 C1.44457031 18.82792969 1.44457031 18.82792969 1.125 16.875 C1.01115967 16.20718506 0.89731934 15.53937012 0.7800293 14.85131836 C-0.02125331 9.84193935 -0.26605263 5.0549999 0 0 Z " fill="#D5CDBD" transform="translate(403,231)"/>
<path d="M0 0 C9.63997753 9.07292003 19.00045081 22.65401684 20.30078125 36.11328125 C20.33047209 44.21888116 19.99580148 51.0963799 14.9375 57.6875 C-3.27469345 72.02475867 -28.87686947 80.41663298 -52 80 C-50.72356036 76.35820739 -49.3069662 73.90480598 -46.65625 71.109375 C-45.99189941 70.40425781 -45.32754883 69.69914062 -44.64306641 68.97265625 C-43.93585449 68.23917969 -43.22864258 67.50570312 -42.5 66.75 C-41.77603027 65.99074219 -41.05206055 65.23148437 -40.30615234 64.44921875 C-34.32544477 58.22704161 -28.14459665 52.38178745 -21.453125 46.921875 C-6.69189243 34.48665484 -2.33943665 18.53080087 0 0 Z " fill="#D5CCBC" transform="translate(440,318)"/>
<path d="M0 0 C11.09210803 -0.02319611 22.18421026 -0.04095215 33.27633762 -0.05181217 C38.42715374 -0.05702509 43.57795322 -0.06409384 48.72875977 -0.07543945 C53.7019104 -0.08632488 58.67504507 -0.09228883 63.64820671 -0.09487724 C65.54315378 -0.0967213 67.43809999 -0.10032226 69.33304024 -0.10573006 C71.99230954 -0.11301554 74.6515133 -0.11398778 77.31079102 -0.11352539 C78.0897876 -0.11712067 78.86878418 -0.12071594 79.67138672 -0.12442017 C84.21669667 -0.1158987 88.51494634 0.25236376 93 1 C93.02779013 2.47905232 93.04673956 3.95827058 93.0625 5.4375 C93.07410156 6.26121094 93.08570313 7.08492187 93.09765625 7.93359375 C92.96909904 11.97029023 92.44600456 15.98595897 92 20 C62.3 20 32.6 20 2 20 C0.43386725 14.51853536 -0.2366197 11.47605528 -0.125 6.0625 C-0.10695313 4.91910156 -0.08890625 3.77570313 -0.0703125 2.59765625 C-0.03550781 1.31181641 -0.03550781 1.31181641 0 0 Z " fill="#D0C8B9" transform="translate(287,227)"/>
<path d="M0 0 C0.99 0.495 0.99 0.495 2 1 C0.989375 1.825 -0.02125 2.65 -1.0625 3.5 C-6.02833282 7.77779575 -10.31027222 12.4517815 -13.9375 17.921875 C-14.5975 18.91703125 -15.2575 19.9121875 -15.9375 20.9375 C-16.52402344 21.87464844 -17.11054688 22.81179688 -17.71484375 23.77734375 C-22.89574072 28.81654097 -33.33040236 27.12979626 -40.15625 27.09765625 C-41.29912476 27.0962413 -42.44199951 27.09482635 -43.61950684 27.09336853 C-47.24636525 27.08780025 -50.87316045 27.07525362 -54.5 27.0625 C-56.9687491 27.0574809 -59.43749918 27.05291871 -61.90625 27.04882812 C-67.93752133 27.03784121 -73.96875615 27.02113485 -80 27 C-79.04911121 25.72161623 -78.09676054 24.44431974 -77.14379883 23.16748047 C-76.61361649 22.45606903 -76.08343414 21.74465759 -75.53718567 21.01168823 C-73.69904757 18.60614877 -71.73241 16.35653286 -69.6875 14.125 C-67.03056413 11.27604731 -67.03056413 11.27604731 -65 8 C-64.2157666 7.98018066 -63.4315332 7.96036133 -62.62353516 7.93994141 C-30.55862039 8.27342264 -30.55862039 8.27342264 0 0 Z " fill="#D7CEBE" transform="translate(404,373)"/>
<path d="M0 0 C1.95924836 2.93887253 2.3381081 4.17618665 2.859375 7.53125 C3.92015197 13.21899577 5.91215685 18.22703685 8.25 23.5 C8.65621582 24.42417725 9.06243164 25.34835449 9.48095703 26.30053711 C14.12334299 36.71042876 19.38182227 44.7304434 27.203125 53 C31.39828319 57.45270542 35.19797209 62.21128665 39 67 C39.85669195 68.05214757 40.71346548 69.10422871 41.5703125 70.15625 C53.30498949 84.75746297 58.63529719 98.49784577 57.36279297 117.33154297 C56.47280179 123.87770961 53.06372412 128.90501746 49 134 C48.57187012 134.54414551 48.14374023 135.08829102 47.70263672 135.64892578 C45.02603601 139.00081116 42.23534295 142.23843579 39.38476562 145.44287109 C26.09769592 160.3837968 13.78432555 175.45624759 14.5546875 196.58984375 C16.50391701 211.51683812 23.50456194 225.4583456 32.28515625 237.484375 C40.281534 249.21482436 40.281534 249.21482436 39.78125 254.1640625 C39 256 39 256 37 259 C36.91580811 258.38181396 36.83161621 257.76362793 36.74487305 257.12670898 C35.65248304 250.45761411 33.49753523 245.67752685 29.8125 240.0625 C29.31999756 239.28108643 28.82749512 238.49967285 28.32006836 237.69458008 C26.22015922 234.37479245 24.06806825 231.10011498 21.859375 227.8515625 C17.3713031 221.19750808 14.97891224 214.76648471 13 207 C12.77441406 206.23042969 12.54882812 205.46085938 12.31640625 204.66796875 C8.67227666 191.12185944 11.29479451 179.29780054 18.04296875 167.296875 C19.91124465 164.10864006 21.79681985 160.97161827 24 158 C24.66 158 25.32 158 26 158 C26.20238281 157.31292969 26.40476562 156.62585938 26.61328125 155.91796875 C28.47707896 151.99611837 31.16979597 149.38934985 34.1875 146.3125 C44.69260545 135.28206712 52.77322743 123.85880148 54.375 108.375 C53.68135321 86.30836139 37.20620249 69.67106723 23.203125 54.42578125 C12.95572883 43.14274398 6.48005326 30.14802213 1 16 C0.67 16 0.34 16 0 16 C-0.1958009 14.08416353 -0.38132214 12.16727461 -0.5625 10.25 C-0.66691406 9.18265625 -0.77132813 8.1153125 -0.87890625 7.015625 C-0.98560074 4.35858796 -0.81930395 2.50039428 0 0 Z " fill="#26201A" transform="translate(267,250)"/>
<path d="M0 0 C5.94 0.66 11.88 1.32 18 2 C18.66 9.59 19.32 17.18 20 25 C17.2775 24.360625 14.555 23.72125 11.75 23.0625 C10.89889648 22.86277588 10.04779297 22.66305176 9.17089844 22.45727539 C8.4905957 22.29735107 7.81029297 22.13742676 7.109375 21.97265625 C6.41811523 21.81031494 5.72685547 21.64797363 5.01464844 21.48071289 C3.00600899 21.0014338 1.00243058 20.50453398 -1 20 C-1.02722517 17.79173622 -1.04649729 15.58337362 -1.0625 13.375 C-1.07410156 12.14523438 -1.08570313 10.91546875 -1.09765625 9.6484375 C-1 6 -1 6 0 0 Z " fill="#D0C8B9" transform="translate(383,228)"/>
<path d="M0 0 C0.66 1.32 1.32 2.64 2 4 C1.22076172 4.92619141 1.22076172 4.92619141 0.42578125 5.87109375 C-9.25228376 17.62430764 -14.83869224 28.92454769 -14.41015625 44.51953125 C-12.65181981 59.44027186 -5.45823455 73.50930007 3.28515625 85.484375 C11.281534 97.21482436 11.281534 97.21482436 10.78125 102.1640625 C10 104 10 104 8 107 C7.91580811 106.38181396 7.83161621 105.76362793 7.74487305 105.12670898 C6.65248304 98.45761411 4.49753523 93.67752685 0.8125 88.0625 C0.31999756 87.28108643 -0.17250488 86.49967285 -0.67993164 85.69458008 C-2.77984078 82.37479245 -4.93193175 79.10011498 -7.140625 75.8515625 C-11.6286969 69.19750808 -14.02108776 62.76648471 -16 55 C-16.22558594 54.23042969 -16.45117188 53.46085937 -16.68359375 52.66796875 C-20.32772334 39.12185944 -17.70520549 27.29780054 -10.95703125 15.296875 C-9.08875535 12.10864006 -7.20318015 8.97161827 -5 6 C-4.34 6 -3.68 6 -3 6 C-2.690625 5.195625 -2.38125 4.39125 -2.0625 3.5625 C-1 1 -1 1 0 0 Z " fill="#312B24" transform="translate(296,402)"/>
<path d="M0 0 C2.56407016 2.56407016 3.39083138 5.42057616 4.625 8.75 C9.65386205 21.68760659 16.1942897 32.15410237 26 42 C25.34 42.66 24.68 43.32 24 44 C23.566875 43.525625 23.13375 43.05125 22.6875 42.5625 C20.97690387 40.76313043 20.97690387 40.76313043 18 40 C17.67 40.99 17.34 41.98 17 43 C13.95881946 39.36380588 12.10227539 35.33042313 10.125 31.0625 C9.59990845 29.93231445 9.59990845 29.93231445 9.06420898 28.77929688 C0.51800415 10.18741493 0.51800415 10.18741493 0 0 Z " fill="#CEC8BA" transform="translate(268,265)"/>
<path d="M0 0 C0.33 0 0.66 0 1 0 C1 3.3 1 6.6 1 10 C0.34 10 -0.32 10 -1 10 C-0.79375 10.61875 -0.5875 11.2375 -0.375 11.875 C-0.25125 12.57625 -0.1275 13.2775 0 14 C-0.66 14.66 -1.32 15.32 -2 16 C11.365 16.495 11.365 16.495 25 17 C25 17.33 25 17.66 25 18 C15.43 18 5.86 18 -4 18 C-4.66 19.32 -5.32 20.64 -6 22 C-7.44100857 23.88397515 -8.92419102 25.7360926 -10.4375 27.5625 C-11.21996094 28.51253906 -12.00242187 29.46257812 -12.80859375 30.44140625 C-13.89333984 31.70791016 -13.89333984 31.70791016 -15 33 C-15.50660156 33.62777344 -16.01320313 34.25554687 -16.53515625 34.90234375 C-17.26025391 35.44568359 -17.26025391 35.44568359 -18 36 C-20.09155273 35.56860352 -20.09155273 35.56860352 -22 35 C-21.154375 34.175 -20.30875 33.35 -19.4375 32.5 C-10.47988256 23.48292935 -1.89992856 13.02451026 0 0 Z " fill="#37322D" transform="translate(343,363)"/>
<path d="M0 0 C0.66 1.32 1.32 2.64 2 4 C1.22076172 4.92619141 1.22076172 4.92619141 0.42578125 5.87109375 C-8.33344671 16.50845562 -13.33566696 26.19778556 -14.5 40.125 C-14.665 41.40375 -14.83 42.6825 -15 44 C-15.99 44.66 -16.98 45.32 -18 46 C-19.04046315 30.57802399 -14.09587682 18.26839015 -5 6 C-4.34 6 -3.68 6 -3 6 C-2.690625 5.195625 -2.38125 4.39125 -2.0625 3.5625 C-1 1 -1 1 0 0 Z " fill="#2C271F" transform="translate(296,402)"/>
<path d="M0 0 C9.6112483 9.04588075 21.01462584 24.11242325 22.23828125 37.6328125 C22.30636258 40.14823856 22.35658627 42.50852709 22 45 C21.34 45.66 20.68 46.32 20 47 C19.91363281 46.27296875 19.82726562 45.5459375 19.73828125 44.796875 C17.62502965 29.67452407 10.7142109 17.41691814 1.06640625 5.75390625 C0 4 0 4 0 0 Z " fill="#241D16" transform="translate(440,313)"/>
<path d="M0 0 C0.33 0.99 0.66 1.98 1 3 C0 4.66666667 -1 6.33333333 -2 8 C-1.67 8.99 -1.34 9.98 -1 11 C-1.33 11.99 -1.66 12.98 -2 14 C18.295 14.495 18.295 14.495 39 15 C39 15.33 39 15.66 39 16 C21.84 16 4.68 16 -13 16 C-6.25 7 -6.25 7 -3.125 3.5 C-2.52945312 2.8296875 -1.93390625 2.159375 -1.3203125 1.46875 C-0.88460938 0.9840625 -0.44890625 0.499375 0 0 Z " fill="#B7AFA3" transform="translate(337,384)"/>
<path d="M0 0 C-0.51052825 4.06599283 -2.43183301 5.55872452 -5.5 8.125 C-12.24726645 13.99134644 -18.57147976 20.17026516 -23 28 C-22.01 28.33 -21.02 28.66 -20 29 C-21.32 29 -22.64 29 -24 29 C-24 28.34 -24 27.68 -24 27 C-24.66 26.67 -25.32 26.34 -26 26 C-25.45730469 25.32453125 -24.91460937 24.6490625 -24.35546875 23.953125 C-23.28232422 22.61507813 -23.28232422 22.61507813 -22.1875 21.25 C-21.47980469 20.36828125 -20.77210938 19.4865625 -20.04296875 18.578125 C-18.77333781 16.97591387 -17.53898095 15.34423066 -16.36328125 13.671875 C-15.91339844 13.12015625 -15.46351563 12.5684375 -15 12 C-14.34 12 -13.68 12 -13 12 C-12.773125 11.443125 -12.54625 10.88625 -12.3125 10.3125 C-10.01008462 6.25586338 -5.04801774 0 0 0 Z " fill="#261F19" transform="translate(411,370)"/>
<path d="M0 0 C0.66 0.33 1.32 0.66 2 1 C0.4840625 2.2375 0.4840625 2.2375 -1.0625 3.5 C-4.52894291 6.46018756 -7.48503619 9.68904988 -10.421875 13.16796875 C-11.88104785 14.86190951 -13.39822318 16.44164484 -15 18 C-15.33 16.68 -15.66 15.36 -16 14 C-15.34 14 -14.68 14 -14 14 C-14.3403125 13.13375 -14.3403125 13.13375 -14.6875 12.25 C-15 10 -15 10 -13.5625 7.75 C-12.7890625 6.88375 -12.7890625 6.88375 -12 6 C-13.98 6.33 -15.96 6.66 -18 7 C-18 6.34 -18 5.68 -18 5 C-16.86820312 4.72285156 -15.73640625 4.44570313 -14.5703125 4.16015625 C-13.08851098 3.79439512 -11.60674182 3.42850289 -10.125 3.0625 C-9.37863281 2.88009766 -8.63226563 2.69769531 -7.86328125 2.50976562 C-3.82960875 1.54790308 -3.82960875 1.54790308 0 0 Z " fill="#CAC4BA" transform="translate(404,373)"/>
<path d="M0 0 C3.43267892 0.56189548 4.79512055 1.5060072 6.91015625 4.23828125 C7.42513672 4.89376953 7.94011719 5.54925781 8.47070312 6.22460938 C9.25864258 7.25811523 9.25864258 7.25811523 10.0625 8.3125 C10.59166016 8.98990234 11.12082031 9.66730469 11.66601562 10.36523438 C12.68143503 11.66858953 13.69062706 12.97682744 14.69262695 14.29052734 C15.72859046 15.64511492 16.78968884 16.98047501 17.859375 18.30859375 C19.39912029 20.59184619 19.22411544 22.31061477 19 25 C15.98262005 22.13649974 13.57417821 19.15259622 11.1875 15.75 C8.10614238 11.4314744 4.86425379 7.43907606 1.25 3.55859375 C0 2 0 2 0 0 Z " fill="#211D14" transform="translate(297,310)"/>
<path d="M0 0 C2.61650094 2.61650094 3.52669181 5.60618026 4.8125 9 C7.21323399 15.18639233 9.88133484 21.13525357 13 27 C11.02 27.99 11.02 27.99 9 29 C8.67386719 28.14277344 8.34773438 27.28554688 8.01171875 26.40234375 C7.57472656 25.25894531 7.13773437 24.11554688 6.6875 22.9375 C6.23246094 21.74511719 5.77742188 20.55273438 5.30859375 19.32421875 C4.35801692 16.90946985 3.36586992 14.58722007 2.25 12.25 C0.68528636 8.18174453 0.28439916 4.32482856 0 0 Z " fill="#C0BDB3" transform="translate(268,265)"/>
<path d="M0 0 C2.55763428 3.12934077 4.17140993 6.28567043 5.75 10 C6.19859375 11.03125 6.6471875 12.0625 7.109375 13.125 C8.01835531 16.05925222 8.21278152 17.22792794 7 20 C6.34 20.66 5.68 21.32 5 22 C4.73445313 21.04738281 4.46890625 20.09476562 4.1953125 19.11328125 C3.84210938 17.85902344 3.48890625 16.60476563 3.125 15.3125 C2.77695312 14.07113281 2.42890625 12.82976562 2.0703125 11.55078125 C1.09983488 8.08614659 1.09983488 8.08614659 -0.1953125 5.23046875 C-1 3 -1 3 0 0 Z " fill="#221E17" transform="translate(316,332)"/>
<path d="M0 0 C3.66111499 4.61618847 4.12039135 7.84047397 4.0625 13.6875 C4.05347656 14.86699219 4.04445313 16.04648437 4.03515625 17.26171875 C4.02355469 18.16535156 4.01195312 19.06898438 4 20 C3.67 20 3.34 20 3 20 C2.93941406 19.30132812 2.87882812 18.60265625 2.81640625 17.8828125 C2.73261719 16.97273438 2.64882813 16.06265625 2.5625 15.125 C2.48128906 14.22007812 2.40007812 13.31515625 2.31640625 12.3828125 C2.13010715 9.98889139 2.13010715 9.98889139 1 8 C0.01 8.33 -0.98 8.66 -2 9 C-2.66 8.34 -3.32 7.68 -4 7 C-4 6.01 -4 5.02 -4 4 C-3.34 4 -2.68 4 -2 4 C-2 3.34 -2 2.68 -2 2 C-1.34 2 -0.68 2 0 2 C0 1.34 0 0.68 0 0 Z " fill="#C4BFB1" transform="translate(340,343)"/>
<path d="M0 0 C-0.48309409 4.22224237 -2.77445922 5.9689099 -5.875 8.6875 C-7.20144531 9.86892578 -7.20144531 9.86892578 -8.5546875 11.07421875 C-11 13 -11 13 -14 14 C-12.98424386 10.44485352 -11.71823053 8.56562608 -8.875 6.3125 C-7.92625 5.549375 -6.9775 4.78625 -6 4 C-6 3.34 -6 2.68 -6 2 C-2.25 0 -2.25 0 0 0 Z " fill="#1F1B16" transform="translate(411,370)"/>
<path d="M0 0 C0.66 0 1.32 0 2 0 C2.07404988 4.66514243 2.06513227 9.28507046 1.6875 13.9375 C1.62949219 14.66839844 1.57148438 15.39929688 1.51171875 16.15234375 C1 18 1 18 -2 20 C-2.0544452 17.79194476 -2.09299283 15.58349446 -2.125 13.375 C-2.14820313 12.14523437 -2.17140625 10.91546875 -2.1953125 9.6484375 C-2.0030428 6.05683959 -1.30258556 3.33338825 0 0 Z " fill="#3B352D" transform="translate(280,428)"/>
<path d="M0 0 C3.59478576 3.49207759 7.00247775 6.97475584 10 11 C10 12.32 10 13.64 10 15 C6.46676568 13.82225523 5.58982142 12.63365227 3.3125 9.75 C2.68988281 8.98171875 2.06726563 8.2134375 1.42578125 7.421875 C-0.18642832 4.68332724 -0.29340083 3.12222769 0 0 Z " fill="#2E2923" transform="translate(440,313)"/>
<path d="M0 0 C10.89 0 21.78 0 33 0 C33 0.33 33 0.66 33 1 C23.43 1.33 13.86 1.66 4 2 C3.34 3.32 2.68 4.64 2 6 C1.34 4.02 0.68 2.04 0 0 Z " fill="#DCD5C9" transform="translate(340,381)"/>
<path d="M0 0 C2.44503999 3.66755999 2.26831152 5.57478137 2.25 9.9375 C2.25515625 11.16339844 2.2603125 12.38929688 2.265625 13.65234375 C2.02083557 16.73741052 1.62728656 18.42346294 0 21 C-0.33 21 -0.66 21 -1 21 C-0.67 14.07 -0.34 7.14 0 0 Z " fill="#18110C" transform="translate(322,349)"/>
<path d="M0 0 C2.64 0 5.28 0 8 0 C8 0.66 8 1.32 8 2 C8.99 2 9.98 2 11 2 C10 4 10 4 7.25 5.3125 C4 6 4 6 1.125 4.625 C0.42375 4.08875 -0.2775 3.5525 -1 3 C-0.67 2.01 -0.34 1.02 0 0 Z " fill="#191512" transform="translate(444,242)"/>
<path d="M0 0 C0.33 0 0.66 0 1 0 C1.99 7.92 2.98 15.84 4 24 C2 23 2 23 0.875 19.875 C-0.6425044 13.40189529 -0.1548323 6.60617817 0 0 Z " fill="#140E09" transform="translate(279,437)"/>
<path d="M0 0 C1.0169313 2.65498232 1.13022151 3.69155375 0.00390625 6.359375 C-0.47175781 7.14828125 -0.94742187 7.9371875 -1.4375 8.75 C-1.91058594 9.54921875 -2.38367188 10.3484375 -2.87109375 11.171875 C-3.24363281 11.77515625 -3.61617188 12.3784375 -4 13 C-4.66 13 -5.32 13 -6 13 C-5.71758359 11.53984709 -5.42373386 10.08190207 -5.125 8.625 C-4.96257812 7.81289063 -4.80015625 7.00078125 -4.6328125 6.1640625 C-4 4 -4 4 -2 2 C-1.67 2.33 -1.34 2.66 -1 3 C-0.67 2.01 -0.34 1.02 0 0 Z " fill="#3B352F" transform="translate(323,366)"/>
<path d="M0 0 C0.33 0 0.66 0 1 0 C1.33 3.3 1.66 6.6 2 10 C2.33 8.68 2.66 7.36 3 6 C3.66 8.31 4.32 10.62 5 13 C3.35 14.32 1.7 15.64 0 17 C0 11.39 0 5.78 0 0 Z " fill="#B8B2AA" transform="translate(462,351)"/>
<path d="M0 0 C0 5.12558823 -0.13657837 7.70486755 -3 12 C-3.66 11.67 -4.32 11.34 -5 11 C-4.34 10.01 -3.68 9.02 -3 8 C-4.65 8.33 -6.3 8.66 -8 9 C-7.04270084 7.87411986 -6.08412105 6.7493285 -5.125 5.625 C-4.59132813 4.99851562 -4.05765625 4.37203125 -3.5078125 3.7265625 C-2.38567993 2.44163349 -1.20628025 1.20628025 0 0 Z " fill="#C5BEB0" transform="translate(287,379)"/>
<path d="M0 0 C0.66 1.32 1.32 2.64 2 4 C0.02 6.64 -1.96 9.28 -4 12 C-4.99 11.34 -5.98 10.68 -7 10 C-6.57847656 9.44570313 -6.15695312 8.89140625 -5.72265625 8.3203125 C-5.17480469 7.59585937 -4.62695312 6.87140625 -4.0625 6.125 C-3.51722656 5.40570313 -2.97195313 4.68640625 -2.41015625 3.9453125 C-0.96035376 2.05642921 -0.96035376 2.05642921 0 0 Z " fill="#28241C" transform="translate(316,377)"/>
<path d="M0 0 C3.00617269 3.00617269 2.59585316 5.82381598 3 10 C2.34 10 1.68 10 1 10 C0.67 10.66 0.34 11.32 0 12 C-1.62112003 7.89951993 -2.33963162 5.26246425 -1 1 C-0.67 0.67 -0.34 0.34 0 0 Z " fill="#201D18" transform="translate(291,256)"/>
<path d="M0 0 C4 0 4 0 5.625 1.4375 C6.07875 1.953125 6.5325 2.46875 7 3 C7.66 3.33 8.32 3.66 9 4 C9 4.66 9 5.32 9 6 C9.66 6.33 10.32 6.66 11 7 C10.34 7 9.68 7 9 7 C8.67 7.66 8.34 8.32 8 9 C1.21428571 3.64285714 1.21428571 3.64285714 0 0 Z " fill="#CCC7B9" transform="translate(411,254)"/>
<path d="M0 0 C0.33 0 0.66 0 1 0 C1.66 4.95 2.32 9.9 3 15 C1.68 14.34 0.36 13.68 -1 13 C-1.07654536 8.48382401 -1.10228696 4.40914783 0 0 Z " fill="#1E1A13" transform="translate(403,240)"/>
<path d="M0 0 C3.77300358 1.0197307 4.80206144 1.65872662 6.8125 5.125 C7.204375 6.07375 7.59625 7.0225 8 8 C7.01 8.495 7.01 8.495 6 9 C4.5 7.625 4.5 7.625 3 6 C3 5.34 3 4.68 3 4 C1.68 3.67 0.36 3.34 -1 3 C-0.67 2.01 -0.34 1.02 0 0 Z " fill="#1B1612" transform="translate(298,335)"/>
<path d="M0 0 C4.42857143 5.14285714 4.42857143 5.14285714 5 9 C2.08482708 7.92598892 0.22189824 7.22189824 -2 5 C-2 4.01 -2 3.02 -2 2 C-1.34 2 -0.68 2 0 2 C0 1.34 0 0.68 0 0 Z " fill="#1F1A14" transform="translate(283,306)"/>
<path d="M0 0 C3.73639216 1.24546405 4.18756513 2.63404953 6 6 C5.34 6 4.68 6 4 6 C3.67 6.66 3.34 7.32 3 8 C0.9375 6.25 0.9375 6.25 -1 4 C-0.75 1.75 -0.75 1.75 0 0 Z " fill="#D1CBC3" transform="translate(279,292)"/>
<path d="M0 0 C1 2 1 2 0.25 4.4375 C-0.95715861 6.91217514 -1.74069825 8.43586802 -4 10 C-5.32 9.67 -6.64 9.34 -8 9 C-5.36 6.03 -2.72 3.06 0 0 Z " fill="#2B251F" transform="translate(329,389)"/>
<path d="M0 0 C0.33 3.3 0.66 6.6 1 10 C-0.32 10.33 -1.64 10.66 -3 11 C-3.33 9.68 -3.66 8.36 -4 7 C-3.34 7 -2.68 7 -2 7 C-2 6.34 -2 5.68 -2 5 C-2.66 5 -3.32 5 -4 5 C-4 3 -4 3 -2.5625 1.375 C-1 0 -1 0 0 0 Z " fill="#DBD1C4" transform="translate(476,334)"/>
<path d="M0 0 C0.66 0.66 1.32 1.32 2 2 C1.625 4.625 1.625 4.625 1 7 C0.01 7.33 -0.98 7.66 -2 8 C-2.66 7.67 -3.32 7.34 -4 7 C-2.79618552 4.50638429 -1.54571278 2.31856917 0 0 Z " fill="#C6BDB2" transform="translate(275,392)"/>
<path d="M0 0 C2.85749268 2.85749268 3.99035622 6.11732577 5 10 C4.6875 13 4.6875 13 4 15 C1.32820751 10.22894198 0 5.46088946 0 0 Z " fill="#9A9693" transform="translate(268,265)"/>
<path d="M0 0 C2.29633824 3.44450737 2.54016485 5.93812283 3 10 C1.35 9.67 -0.3 9.34 -2 9 C-1.34 6.03 -0.68 3.06 0 0 Z " fill="#C2BFB7" transform="translate(400,243)"/>
<path d="M0 0 C1.32 0 2.64 0 4 0 C4 4.95 4 9.9 4 15 C3.67 15 3.34 15 3 15 C2.92652344 13.93458984 2.92652344 13.93458984 2.8515625 12.84765625 C2.73941406 11.46900391 2.73941406 11.46900391 2.625 10.0625 C2.55539062 9.14597656 2.48578125 8.22945313 2.4140625 7.28515625 C2.27742188 6.53105469 2.14078125 5.77695312 2 5 C1.34 4.67 0.68 4.34 0 4 C0 2.68 0 1.36 0 0 Z " fill="#B3ACA0" transform="translate(297,431)"/>
<path d="M0 0 C0.99 0.66 1.98 1.32 3 2 C1.79618552 4.49361571 0.54571278 6.68143083 -1 9 C-1.99 8.67 -2.98 8.34 -4 8 C-2.68 5.36 -1.36 2.72 0 0 Z " fill="#201A15" transform="translate(474,351)"/>
<path d="M0 0 C1.88391785 3.26545761 2.49287967 6.28111761 3 10 C2.01 10.66 1.02 11.32 0 12 C-0.66 8.7 -1.32 5.4 -2 2 C-1.34 2 -0.68 2 0 2 C0 1.34 0 0.68 0 0 Z " fill="#37342E" transform="translate(321,342)"/>
<path d="M0 0 C4.875 4.625 4.875 4.625 6 8 C5.34 8.66 4.68 9.32 4 10 C0.06153846 5.69230769 0.06153846 5.69230769 -0.25 2.1875 C-0.1675 1.465625 -0.085 0.74375 0 0 Z " fill="#C4BFB1" transform="translate(321,313)"/>
<path d="M0 0 C2.35119399 3.52679099 2.21443452 5.02879485 2.125 9.1875 C2.10695313 10.27417969 2.08890625 11.36085938 2.0703125 12.48046875 C2.03550781 13.72763672 2.03550781 13.72763672 2 15 C1.01 15.495 1.01 15.495 0 16 C-0.1958009 14.08416353 -0.38132214 12.16727461 -0.5625 10.25 C-0.66691406 9.18265625 -0.77132813 8.1153125 -0.87890625 7.015625 C-0.98560074 4.35858796 -0.81930395 2.50039428 0 0 Z " fill="#38332D" transform="translate(267,250)"/>
<path d="M0 0 C0.99 0.33 1.98 0.66 3 1 C3.6875 4.3125 3.6875 4.3125 4 8 C3.01 8.99 2.02 9.98 1 11 C0.67 7.37 0.34 3.74 0 0 Z " fill="#3B342E" transform="translate(303,498)"/>
<path d="M0 0 C3 1 3 1 4.16796875 2.84765625 C4.50441406 3.57855469 4.84085937 4.30945313 5.1875 5.0625 C5.53167969 5.79597656 5.87585938 6.52945312 6.23046875 7.28515625 C6.48441406 7.85105469 6.73835938 8.41695313 7 9 C3.21875 8.296875 3.21875 8.296875 1.25 5.625 C0 3 0 3 0 0 Z " fill="#1C1A12" transform="translate(289,475)"/>
<path d="M0 0 C0.33 0.66 0.66 1.32 1 2 C0.22265625 3.7265625 0.22265625 3.7265625 -0.9375 5.625 C-1.618125 6.73875 -2.29875 7.8525 -3 9 C-3.66 9 -4.32 9 -5 9 C-5.33 7.68 -5.66 6.36 -6 5 C-5.01 5 -4.02 5 -3 5 C-3.33 4.01 -3.66 3.02 -4 2 C-2.68 1.34 -1.36 0.68 0 0 Z " fill="#C0BBAF" transform="translate(458,367)"/>
<path d="M0 0 C1.32 1.32 2.64 2.64 4 4 C-0.875 8 -0.875 8 -2 8 C-2.20086443 4.28400809 -2.1519437 3.22791555 0 0 Z " fill="#C8C2B4" transform="translate(308,325)"/>
<path d="M0 0 C0.66 0.33 1.32 0.66 2 1 C1.34 2.32 0.68 3.64 0 5 C-0.66 5 -1.32 5 -2 5 C-2 5.66 -2 6.32 -2 7 C-2.66 7 -3.32 7 -4 7 C-4 6.34 -4 5.68 -4 5 C-4.99 4.67 -5.98 4.34 -7 4 C-1.7265625 0.77734375 -1.7265625 0.77734375 0 0 Z " fill="#28211F" transform="translate(445,381)"/>
<path d="M0 0 C0.99 0.33 1.98 0.66 3 1 C3.70211894 2.65204456 4.36971413 4.31923769 5 6 C5.66 6.33 6.32 6.66 7 7 C6 9 6 9 4 10 C0 3.375 0 3.375 0 0 Z " fill="#CBC4B8" transform="translate(287,310)"/>
<path d="M0 0 C2.93200474 2.85276137 5.64315404 5.65079784 8 9 C5 9 5 9 2.9375 7.125 C2.298125 6.42375 1.65875 5.7225 1 5 C0.34 4.34 -0.32 3.68 -1 3 C-0.67 2.01 -0.34 1.02 0 0 Z " fill="#C1BBB1" transform="translate(286,299)"/>
<path d="M0 0 C3.12493704 3.12493704 3.95911133 5.91645015 4.125 10.3125 C4.08375 11.199375 4.0425 12.08625 4 13 C3.34 12.67 2.68 12.34 2 12 C0.73238238 7.70418473 0 4.49055702 0 0 Z " fill="#17140F" transform="translate(268,258)"/>
<path d="M0 0 C2.6855594 2.6855594 3.06049974 5.37621328 4 9 C3.01 9.33 2.02 9.66 1 10 C-1.125 3.375 -1.125 3.375 0 0 Z " fill="#2F2A22" transform="translate(272,268)"/>
<path d="M0 0 C0.66 0.66 1.32 1.32 2 2 C1.875 5 1.875 5 1 8 C-0.98 8.99 -0.98 8.99 -3 10 C-2.01 6.7 -1.02 3.4 0 0 Z " fill="#C3BCB0" transform="translate(437,336)"/>
<path d="M0 0 C0.5534764 2.07553648 1 3.84365964 1 6 C-2.3 6 -5.6 6 -9 6 C-9 5.67 -9 5.34 -9 5 C-6 4 -3 3 0 2 C0 1.34 0 0.68 0 0 Z " fill="#CAC5BB" transform="translate(377,241)"/>
<path d="M0 0 C0.99 0.33 1.98 0.66 3 1 C1.68 3.31 0.36 5.62 -1 8 C-1.66 7.34 -2.32 6.68 -3 6 C-3 5.01 -3 4.02 -3 3 C-2.34 3 -1.68 3 -1 3 C-0.67 2.01 -0.34 1.02 0 0 Z " fill="#1B1814" transform="translate(271,393)"/>
<path d="M0 0 C0.66 0.99 1.32 1.98 2 3 C1.01 3.99 0.02 4.98 -1 6 C-0.01 6.33 0.98 6.66 2 7 C0.02 7 -1.96 7 -4 7 C-2.92598892 4.08482708 -2.22189824 2.22189824 0 0 Z " fill="#BAB6AC" transform="translate(392,391)"/>
<path d="M0 0 C0.99 0.33 1.98 0.66 3 1 C1.63016497 4.16115776 1.0109362 4.9927092 -2 7 C-2.33 6.01 -2.66 5.02 -3 4 C-1.5625 1.8125 -1.5625 1.8125 0 0 Z " fill="#1C1611" transform="translate(298,364)"/>
<path d="M0 0 C2.15377564 2.62198774 3.40072174 4.64404172 4 8 C3.01 7.67 2.02 7.34 1 7 C1 6.34 1 5.68 1 5 C0.01 5.33 -0.98 5.66 -2 6 C-1.34 4.02 -0.68 2.04 0 0 Z " fill="#221D19" transform="translate(277,294)"/>
<path d="M0 0 C0.99 0 1.98 0 3 0 C3.625 2.375 3.625 2.375 4 5 C3.34 5.66 2.68 6.32 2 7 C1.67 6.01 1.34 5.02 1 4 C0.34 3.67 -0.32 3.34 -1 3 C-0.67 2.01 -0.34 1.02 0 0 Z " fill="#1E1A16" transform="translate(257,488)"/>
<path d="M0 0 C3.86107457 2.57404971 3.94319692 4.61020259 5 9 C4.01 9 3.02 9 2 9 C0 2.25 0 2.25 0 0 Z " fill="#CBC6BA" transform="translate(281,464)"/>
<path d="M0 0 C-1.47692308 4.67692308 -1.47692308 4.67692308 -4.125 6.3125 C-5.053125 6.6528125 -5.053125 6.6528125 -6 7 C-5.37162381 3.35541809 -4.14650034 0 0 0 Z " fill="#1A160E" transform="translate(303,397)"/>
<path d="M0 0 C0.66 0.33 1.32 0.66 2 1 C2 3.64 2 6.28 2 9 C1.34 9 0.68 9 0 9 C-1.125 3.375 -1.125 3.375 0 0 Z " fill="#2A2620" transform="translate(307,347)"/>
<path d="M0 0 C2 2 2 2 2.1953125 3.9453125 C2.13020833 5.96354167 2.06510417 7.98177083 2 10 C0.4375 8.375 0.4375 8.375 -1 6 C-0.6875 2.75 -0.6875 2.75 0 0 Z " fill="#26201B" transform="translate(305,458)"/>
<path d="M0 0 C0.33 0.99 0.66 1.98 1 3 C-0.45017921 5.59505753 -1.34638817 6.77590452 -4.1875 7.75 C-4.785625 7.8325 -5.38375 7.915 -6 8 C-6 6.35 -6 4.7 -6 3 C-5.34 3.66 -4.68 4.32 -4 5 C-2.68 3.35 -1.36 1.7 0 0 Z " fill="#3F3A37" transform="translate(467,362)"/>
<path d="M0 0 C2.0625 1.6875 2.0625 1.6875 4 4 C3.75 6.75 3.75 6.75 3 9 C2.34 9 1.68 9 1 9 C0.67 6.03 0.34 3.06 0 0 Z " fill="#C6C3B6" transform="translate(440,318)"/>
<path d="M0 0 C2.5 2.3125 2.5 2.3125 5 5 C5 5.99 5 6.98 5 8 C3.0625 7.25 3.0625 7.25 1 6 C0.20124132 3.86997684 0 2.26695035 0 0 Z " fill="#27231E" transform="translate(440,313)"/>
<path d="M0 0 C0.33 0 0.66 0 1 0 C1 2.31 1 4.62 1 7 C0.67 7 0.34 7 0 7 C-0.33 8.65 -0.66 10.3 -1 12 C-1.33 12 -1.66 12 -2 12 C-2.05422947 10.5629191 -2.09289723 9.12524538 -2.125 7.6875 C-2.14820313 6.88699219 -2.17140625 6.08648437 -2.1953125 5.26171875 C-2 3 -2 3 0 0 Z " fill="#0D0906" transform="translate(484,294)"/>
<path d="M0 0 C1.65 0.33 3.3 0.66 5 1 C4.34 2.65 3.68 4.3 3 6 C1.68 4.68 0.36 3.36 -1 2 C-0.67 1.34 -0.34 0.68 0 0 Z " fill="#221E19" transform="translate(466,260)"/>
<path d="M0 0 C0.99 0 1.98 0 3 0 C2.34 1.65 1.68 3.3 1 5 C1.99 5.33 2.98 5.66 4 6 C2.68 6 1.36 6 0 6 C0 5.34 0 4.68 0 4 C-0.66 3.67 -1.32 3.34 -2 3 C-1.34 2.01 -0.68 1.02 0 0 Z " fill="#2F2D25" transform="translate(387,393)"/>
<path d="M0 0 C0 0.66 0 1.32 0 2 C0.66 2.33 1.32 2.66 2 3 C-1 5 -1 5 -3.1875 4.625 C-3.785625 4.41875 -4.38375 4.2125 -5 4 C-5 3.34 -5 2.68 -5 2 C-2 0 -2 0 0 0 Z " fill="#241F19" transform="translate(294,369)"/>
<path d="M0 0 C0.99 0.33 1.98 0.66 3 1 C3.33 2.98 3.66 4.96 4 7 C3.67 6.34 3.34 5.68 3 5 C2.01 5.33 1.02 5.66 0 6 C-1.125 2.25 -1.125 2.25 0 0 Z " fill="#CFC6B9" transform="translate(308,356)"/>
<path d="M0 0 C2.1519437 3.22791555 2.20086443 4.28400809 2 8 C1.01 8.33 0.02 8.66 -1 9 C-1.09765625 2.84765625 -1.09765625 2.84765625 -1 1 C-0.67 0.67 -0.34 0.34 0 0 Z " fill="#C5C0B5" transform="translate(441,304)"/>
<path d="M0 0 C1 3 1 3 0.0625 5.1875 C-0.4634375 6.0846875 -0.4634375 6.0846875 -1 7 C-4 3.25 -4 3.25 -4 1 C-2.68 1.33 -1.36 1.66 0 2 C0 1.34 0 0.68 0 0 Z " fill="#201C16" transform="translate(478,274)"/>
<path d="M0 0 C0.99 0.33 1.98 0.66 3 1 C2.125 4.875 2.125 4.875 1 6 C-0.5 4.625 -0.5 4.625 -2 3 C-2 2.34 -2 1.68 -2 1 C-1.34 0.67 -0.68 0.34 0 0 Z " fill="#21201A" transform="translate(313,475)"/>
<path d="M0 0 C2 3 2 3 1.625 5.6875 C1.41875 6.450625 1.2125 7.21375 1 8 C0.01 8 -0.98 8 -2 8 C-1.34 5.36 -0.68 2.72 0 0 Z " fill="#BDB7A8" transform="translate(302,456)"/>
</svg>
